<svg width="552" height="461" viewBox="0 0 552 461" fill="none" xmlns="http://www.w3.org/2000/svg">
<path fill-rule="evenodd" clip-rule="evenodd" d="M153.14 4.97927C148.273 17.351 149.053 40.0047 155.553 51.1101C162.584 63.1227 179.447 76.5191 199.251 87.2079C207.274 91.5409 212.51 95.3688 210.538 95.3975C203.682 95.498 177.504 81.3404 163.921 70.2614C150.438 59.2637 150 58.6509 150 64.6357C150 77.8023 153.586 84.984 166.734 94.5597C177.492 101.741 182.635 101.507 192.608 103.776C202.584 106.043 212.528 109.028 213.841 110.276C217.365 113.622 192.816 110.254 175.874 104.973C162.355 100.76 162.442 99.9398 162.442 105.473C162.442 119.083 182.521 128.718 205.012 125.906C213.444 124.85 217.446 124.345 216.483 125.906C215.67 127.225 206.944 129.061 197.09 129.985C187.238 130.909 181.424 130.536 180.655 131.306C178.315 133.649 181.85 138.488 188.739 146.867L201.144 160.418C201.543 160.853 202.23 160.85 202.625 160.412L212.622 149.311C224.599 136.094 241.43 132.503 254.482 134.897C258.562 135.645 258.818 132.831 265.24 124.124C269.512 118.331 273.607 113.352 273.607 112.155C273.607 108.566 255.677 96.5944 220.539 76.7465C177.981 53.5039 169.59 42.5997 163.592 21.933C157.944 -2.75308 156.355 -3.19108 153.14 4.97927ZM400.602 2.02997C400.019 3.89483 398.537 11.012 397.007 17.5952C391.384 43.1096 381.468 53.504 335.668 78.3001C285.574 106.663 263.354 127.095 253.993 153.211C240.844 186.366 249.032 228.813 270.727 257.346L278.051 265.071C278.403 265.442 278.98 265.488 279.386 265.176L282.257 262.972L285.843 259.381L291.819 252.199C299.415 239.392 303 235.801 307.782 213.059C312.563 187.594 309.081 165.69 302.184 149.162L299.036 141.62C298.789 141.027 298.055 140.818 297.532 141.191L291.343 145.605C287.377 148.432 283.412 152.358 283.875 153.211C297.024 172.362 298.099 197.254 288.178 216.843C284.632 223.845 280.249 231.128 278.671 230.654C277.096 230.177 273.308 222.502 270.021 215.979C265.287 206.583 263.058 199.739 263.132 186.366C263.249 165.247 272.017 151.07 287.417 142.117C309.749 130.109 329.704 131.447 346.804 149.261L356.152 159.918C356.533 160.352 357.202 160.374 357.611 159.966L368.32 149.261C373.997 142.761 380.471 133.899 379.078 132.503C376.687 130.109 370.494 130.997 359.686 129.985C335.111 127.677 335.173 124.95 359.686 125.321C376.543 125.575 383.094 123.476 388.64 119.337C394.511 114.956 398.656 103.513 396.354 101.205C394.617 100.185 389.914 102.524 382.663 104.973C367.316 110.163 341.692 113.728 345.326 110.276C346.641 109.026 355.928 106.137 365.966 103.855C388.64 98.9884 399.011 91.5313 405.375 79.837C409.422 72.4015 410.156 61.8827 406.57 60.6857C404.179 60.6857 402.362 64.1138 397.007 69.0644C387.453 77.8996 357.001 96.2133 345.947 95.4282C345.72 95.412 345.509 95.2622 345.639 95.0759C347.003 93.1219 365.277 85.433 373.101 79.837C394.617 64.2766 401.607 57.5505 406.57 45.1253C411.351 33.1557 408.149 5.13248 404.233 1.21125C402.4 -0.624885 401.357 -0.390281 400.602 2.02997Z" fill="#E7BC10"/>
<path d="M522.876 399.338H449.614V381.923H522.125C525.528 381.923 528.33 380.822 530.532 378.62C532.734 376.318 533.835 373.316 533.835 369.612C533.835 365.909 532.734 362.957 530.532 360.755C528.33 358.453 525.528 357.302 522.125 357.302H476.937C473.934 357.302 470.782 356.852 467.479 355.951C464.276 355.05 461.073 353.349 457.871 350.847C454.768 348.344 452.416 345.192 450.815 341.389C449.213 337.485 448.413 333.532 448.413 329.529C448.413 321.322 451.065 314.666 456.369 309.562C461.774 304.357 468.63 301.755 476.937 301.755H550.649V319.17H477.687C474.385 319.17 471.682 320.221 469.581 322.322C467.579 324.424 466.578 327.277 466.578 330.88C466.578 334.383 467.579 337.235 469.581 339.437C471.682 341.539 474.385 342.59 477.687 342.59H522.876C526.979 342.59 530.582 343.19 533.685 344.391C536.887 345.592 539.74 347.193 542.242 349.195C544.744 351.197 546.996 354.049 548.998 357.752C550.999 361.456 552 365.859 552 370.964C552 375.067 551.35 378.67 550.049 381.773C548.848 384.875 547.196 387.628 545.094 390.03C543.093 392.432 540.19 394.584 536.387 396.485C532.584 398.387 528.08 399.338 522.876 399.338Z" fill="url(#paint0_linear_156_393)"/>
<path d="M438.511 399.338H418.844L408.786 381.322H342.595L350.552 366.61H400.529L376.058 322.473L333.422 399.338H313.455L365.549 306.859C366.45 305.258 367.651 304.007 369.152 303.106C370.653 302.205 372.255 301.755 373.956 301.755H378.16C379.861 301.755 381.413 302.205 382.814 303.106C384.315 304.007 385.516 305.258 386.417 306.859L438.511 399.338Z" fill="url(#paint1_linear_156_393)"/>
<path d="M287.684 372.465H240.256V356.251H287.834C290.236 356.251 292.838 355.701 295.641 354.6C298.543 353.399 300.945 351.297 302.847 348.294C304.849 345.192 305.849 341.639 305.849 337.635C305.849 332.131 304.148 327.677 300.745 324.274C297.442 320.871 293.139 319.17 287.834 319.17H241.445V399.338H223.43V301.755H287.684C292.788 301.755 297.592 302.606 302.096 304.307C306.6 306.009 310.453 308.461 313.656 311.663C316.959 314.766 319.511 318.519 321.312 322.923C323.114 327.227 324.015 331.931 324.015 337.035C324.015 340.838 323.414 344.791 322.213 348.895C321.012 352.898 318.76 356.852 315.458 360.755C312.155 364.658 307.951 367.611 302.847 369.612C297.843 371.514 292.788 372.465 287.684 372.465Z" fill="url(#paint2_linear_156_393)"/>
<path d="M209.925 399.338H190.258L180.2 381.322H114.273L122.23 366.61H171.943L147.472 322.473L104.836 399.338H84.8691L136.963 306.859C137.864 305.258 139.065 304.007 140.566 303.106C142.068 302.205 143.669 301.755 145.37 301.755H149.574C151.275 301.755 152.827 302.205 154.228 303.106C155.729 304.007 156.93 305.258 157.831 306.859L209.925 399.338Z" fill="url(#paint3_linear_156_393)"/>
<path d="M56.748 399.338H38.5826V319.17H0V301.755H95.1805V319.17H56.748V399.338Z" fill="url(#paint4_linear_156_393)"/>
<path d="M478.666 460.248C473.847 460.248 469.118 458.626 466.596 456.284L468.263 452.771C470.605 454.888 474.613 456.419 478.666 456.419C484.116 456.419 486.458 454.303 486.458 451.555C486.458 443.854 467.362 448.718 467.362 437.008C467.362 432.144 471.145 428 479.432 428C483.125 428 486.953 428.991 489.566 430.793L488.079 434.396C485.332 432.639 482.224 431.829 479.432 431.829C474.072 431.829 471.776 434.08 471.776 436.828C471.776 444.529 490.872 439.71 490.872 451.285C490.872 456.104 486.998 460.248 478.666 460.248Z" fill="#323B79"/>
<path d="M450.092 428.361H454.596V459.887H450.903L431.987 436.377V459.887H427.483V428.361H431.176L450.092 451.871V428.361Z" fill="#323B79"/>
<path d="M398.774 460.248C389.091 460.248 381.975 453.357 381.975 444.124C381.975 434.891 389.091 428 398.774 428C408.367 428 415.483 434.846 415.483 444.124C415.483 453.402 408.367 460.248 398.774 460.248ZM398.774 456.239C405.755 456.239 410.979 451.105 410.979 444.124C410.979 437.143 405.755 432.009 398.774 432.009C391.703 432.009 386.478 437.143 386.478 444.124C386.478 451.105 391.703 456.239 398.774 456.239Z" fill="#323B79"/>
<path d="M365.471 459.887V428.361H369.975V459.887H365.471Z" fill="#323B79"/>
<path d="M338.203 459.887V432.279H327.394V428.361H353.471V432.279H342.661V459.887H338.203Z" fill="#323B79"/>
<path d="M302.063 460.248C293.776 460.248 288.731 455.429 288.731 446.286V428.361H293.235V446.106C293.235 453.087 296.433 456.239 302.108 456.239C307.783 456.239 311.025 453.087 311.025 446.106V428.361H315.394V446.286C315.394 455.429 310.395 460.248 302.063 460.248Z" fill="#323B79"/>
<path d="M255.158 459.887V428.361H259.662V455.969H276.731V459.887H255.158Z" fill="#323B79"/>
<path d="M226.45 460.248C216.766 460.248 209.65 453.357 209.65 444.124C209.65 434.891 216.766 428 226.45 428C236.043 428 243.159 434.846 243.159 444.124C243.159 453.402 236.043 460.248 226.45 460.248ZM226.45 456.239C233.43 456.239 238.655 451.105 238.655 444.124C238.655 437.143 233.43 432.009 226.45 432.009C219.379 432.009 214.154 437.143 214.154 444.124C214.154 451.105 219.379 456.239 226.45 456.239Z" fill="#323B79"/>
<path d="M185.445 460.248C180.626 460.248 175.897 458.626 173.375 456.284L175.041 452.771C177.383 454.888 181.392 456.419 185.445 456.419C190.895 456.419 193.237 454.303 193.237 451.555C193.237 443.854 174.141 448.718 174.141 437.008C174.141 432.144 177.924 428 186.211 428C189.904 428 193.732 428.991 196.344 430.793L194.858 434.396C192.111 432.639 189.003 431.829 186.211 431.829C180.851 431.829 178.554 434.08 178.554 436.828C178.554 444.529 197.651 439.71 197.651 451.285C197.651 456.104 193.777 460.248 185.445 460.248Z" fill="#323B79"/>
<path d="M144.665 460.248C134.982 460.248 127.866 453.357 127.866 444.124C127.866 434.891 134.982 428 144.665 428C154.259 428 161.375 434.846 161.375 444.124C161.375 453.402 154.259 460.248 144.665 460.248ZM144.665 456.239C151.646 456.239 156.871 451.105 156.871 444.124C156.871 437.143 151.646 432.009 144.665 432.009C137.594 432.009 132.37 437.143 132.37 444.124C132.37 451.105 137.594 456.239 144.665 456.239Z" fill="#323B79"/>
<path d="M115.866 432.279H98.121V443.268H113.929V447.142H98.121V459.887H93.6172V428.361H115.866V432.279Z" fill="#323B79"/>
<path d="M77.113 428.361H81.6168V459.887H77.9237L59.0077 436.377V459.887H54.5039V428.361H58.197L77.113 451.871V428.361Z" fill="#323B79"/>
<path d="M38 459.887V428.361H42.5038V459.887H38Z" fill="#323B79"/>
<defs>
<linearGradient id="paint0_linear_156_393" x1="500.206" y1="301.755" x2="500.206" y2="399.338" gradientUnits="userSpaceOnUse">
<stop stop-color="#31A0D9"/>
<stop offset="1" stop-color="#324885"/>
</linearGradient>
<linearGradient id="paint1_linear_156_393" x1="375.983" y1="301.755" x2="375.983" y2="399.338" gradientUnits="userSpaceOnUse">
<stop stop-color="#31A0D9"/>
<stop offset="1" stop-color="#324885"/>
</linearGradient>
<linearGradient id="paint2_linear_156_393" x1="273.722" y1="301.755" x2="273.722" y2="399.338" gradientUnits="userSpaceOnUse">
<stop stop-color="#31A0D9"/>
<stop offset="1" stop-color="#324885"/>
</linearGradient>
<linearGradient id="paint3_linear_156_393" x1="147.397" y1="301.755" x2="147.397" y2="399.338" gradientUnits="userSpaceOnUse">
<stop stop-color="#31A0D9"/>
<stop offset="1" stop-color="#324885"/>
</linearGradient>
<linearGradient id="paint4_linear_156_393" x1="47.5902" y1="301.755" x2="47.5902" y2="399.338" gradientUnits="userSpaceOnUse">
<stop stop-color="#31A0D9"/>
<stop offset="1" stop-color="#324885"/>
</linearGradient>
</defs>
</svg>
